<svg viewBox="0 0 981 1000" xmlns="http://www.w3.org/2000/svg"><path fill="rgb(255,255,255)" d="M839.882 250l0 50l-696 0l0 -50q0 -22 13 -35t25 -15l608 0q6 0 14 1t22 14 14 35zm-148 -150q6 0 14 1t22 14 14 35l-498 0q0 -22 13 -35t25 -15l410 0zm248 200q34 32 38 46 6 18 0 54l-76 450q-4 22 -20 35t-28 15l-710 0q-52 0 -60 -50 -6 -26 -39 -223t-39 -227q-10 -22 -3 -44t10 -26 21 -20l10 -10 30 -30l0 80l836 0l0 -80zm-248 270l0 -100l-70 0l0 80l-260 0l0 -80l-68 0l0 100q0 50 48 50l300 0q22 0 35 -12t13 -24z"/></svg>