<svg xmlns="http://www.w3.org/2000/svg" viewBox="0 0 640.26 363.474">
  <path fill="black" d="M371.767 363.45c-.195-.033-.248-.093-.254-.283-.004-.133-.055-.967-.115-1.853l-.108-1.61.264-.162c.26-.157.274-.156.72.07.856.434 1.416.58 2.4.633.826.042 1.005.025 1.36-.132.688-.304 1.143-1.072 1.347-2.273.16-.908.23-31.457.09-32.753-.21-1.887-.37-1.978-3.8-2.218l-.79-.06v-1.53l1.11.07c1.42.09 10.51.09 11.84 0l1.01-.07v.77c0 .42-.03.77-.08.77-.67 0-2.95.22-3.29.31-.51.14-.87.47-1.02.95-.23.73-.27 2.72-.28 14.97 0 13.59-.01 13.83-.44 15.62-.99 4.11-4.28 7.75-7.76 8.59-.56.14-1.78.23-2.16.16zM15.57 355.17c-5.852-.42-8.92-2.336-10.2-6.375-.138-.432-.234-.823-.44-1.8-.06-.29-.117-4.277-.158-11.205-.057-9.505-.08-10.828-.212-11.38-.268-1.133-.66-1.333-2.925-1.486-.758-.052-1.437-.094-1.507-.094-.1 0-.128-.165-.128-.773v-.773l1.103.07c1.437.09 10.41.092 11.835 0l1.102-.07v1.53l-.787.055c-2.222.15-2.63.21-3.015.42-.476.26-.656.61-.782 1.54-.13.94-.132 19.53-.004 20.55.213 1.7.78 3.15 1.625 4.17 1.455 1.74 4.01 2.6 7.823 2.6 2.245 0 3.913-.3 5.368-.99 2.366-1.11 3.713-3 4.326-6.08.15-.75.16-1.55.16-10.49 0-10.25-.006-10.42-.413-11-.31-.44-.92-.59-3.25-.76l-.78-.06v-1.53l1.33.07c1.72.09 6.77.09 8.6 0l1.42-.07v1.53l-.78.06c-2.27.16-3 .33-3.3.79-.08.12-.21.5-.29.84-.12.53-.15 1.89-.21 10.2-.06 8.98-.08 9.65-.25 10.62-.53 3.09-1.37 4.99-2.89 6.6-1.82 1.91-4.29 2.89-8.15 3.21-1 .08-3.23.1-4.18.03zm52.63-.332l-2.046-.373-11.08-13.77c-6.096-7.574-11.14-13.83-11.213-13.905-.11-.118-.12 1.402-.09 11.88.03 10.82.05 12.077.19 12.64.27 1.11.67 1.324 2.76 1.486.67.052 1.31.094 1.42.094.2 0 .21.026.21.773v.774l-1.68-.07c-2.16-.09-6-.09-8.05 0l-1.6.07v-1.53l.88-.057c2.35-.152 2.98-.34 3.26-.97.35-.773.37-1.544.37-14.02 0-12.476-.02-13.247-.36-14.02-.28-.633-.74-.762-3.44-.97l-.7-.055v-1.53l1.42.063c2.05.09 5.55.1 6.29.016l.64-.072 11.22 13.842L68 349.2l.19.225-.03-12.195c-.02-11.062-.04-12.253-.18-12.823-.263-1.113-.66-1.316-2.892-1.482-.693-.052-1.29-.094-1.33-.095-.035 0-.065-.348-.065-.773v-.773l1.19.07c1.545.09 7.12.09 8.78 0l1.28-.07v1.53l-.696.054c-2.704.208-3.164.338-3.44.97-.093.212-.21.75-.266 1.195-.11.936-.13 28.586-.02 29.588.06.52.05.61-.07.6-.08 0-1.06-.17-2.18-.38zm124.85.258c-1.173-.142-2.197-.35-3.395-.686-.88-.247-2.52-.846-2.65-.968-.034-.03-.004-.523.067-1.092.07-.57.155-2.22.187-3.668l.05-2.632h1.56l.2 1.687c.13 1.078.26 1.83.37 2.082.3.68 1.21 1.46 2.36 2.02 2.82 1.38 6.15 1.55 8.86.45 2.12-.86 3.63-2.37 4.34-4.36.3-.83.31-.91.31-2.16 0-1.22-.02-1.36-.27-2.03-.88-2.41-3.06-3.63-7.53-4.23-4-.54-6.12-1.13-7.77-2.15-.79-.5-1.82-1.53-2.24-2.26-.76-1.31-1.06-3.45-.76-5.43.44-3.01 1.9-5.32 4.4-6.97 3.36-2.22 7.68-2.79 12.3-1.61.91.23 3.67 1.18 4.02 1.38l-.11.64c-.22 1.14-.4 2.75-.51 4.47l-.11 1.69h-1.55l-.19-1.75c-.21-1.86-.32-2.27-.77-2.74-.37-.39-1.24-1.01-1.83-1.3-1.63-.82-4.71-1.15-6.43-.7-2.47.65-4.19 2.18-4.89 4.37-.91 2.82-.2 5.23 1.92 6.54 1.31.81 3.08 1.29 5.98 1.64 4.48.54 7.05 1.42 8.65 2.98 1.39 1.36 1.99 3.33 1.76 5.82-.33 3.58-1.93 6.32-4.88 8.34-3 2.05-7.49 3.05-11.51 2.56zm120.645.084c-.148-.02-.675-.082-1.17-.137-1.037-.117-2.472-.432-3.51-.773-1.53-.5-3.855-1.78-4.995-2.75-.782-.663-1.867-1.803-2.424-2.545-2.286-3.044-3.426-6.714-3.426-11.025 0-5.03 1.67-9.32 4.866-12.5 2.603-2.588 5.885-4.14 10.03-4.74 1.333-.195 4.336-.22 5.76-.052 9.24 1.102 14.624 7.02 14.624 16.077 0 5.09-1.84 9.633-5.305 13.1-2.84 2.844-6.184 4.528-10.265 5.17-.893.14-3.6.253-4.185.175zm5.13-2.252c2.188-.376 4.064-1.333 5.535-2.824 1.902-1.928 3.087-4.514 3.638-7.937.48-2.984.36-6.59-.316-9.527-.757-3.285-2.37-5.973-4.587-7.643-2.16-1.627-4.688-2.39-7.87-2.375-5.88.028-9.86 3.06-11.295 8.604-1.315 5.08-.436 11.613 2.137 15.887.964 1.6 2.438 3.188 3.758 4.048 1.66 1.09 3.658 1.77 5.715 1.95.697.06 2.44-.03 3.285-.17zm173.745 2.168c-1.835-.223-3.877-.74-5.332-1.353-.69-.29-.782-.355-.744-.524.143-.66.245-2.24.29-4.54l.05-2.63h.798c.44 0 .798.03.798.06 0 .46.41 3.32.52 3.62.243.66 1.183 1.51 2.285 2.05 1.426.71 2.52 1.01 4.33 1.19 1.044.11 1.803.05 3.034-.21 3.51-.75 5.84-3.06 6.29-6.24.27-1.91-.47-3.92-1.82-5-1.23-.98-3.25-1.67-5.97-2.02-5.04-.67-7.48-1.53-9.11-3.23-.78-.81-1.2-1.56-1.52-2.72-.22-.8-.25-1.06-.26-2.25-.01-2.5.54-4.3 1.89-6.17 2.25-3.14 6.89-4.99 11.52-4.6 2.08.17 3.74.56 6 1.4.74.27 1.36.51 1.37.53.01.01-.03.33-.1.69-.26 1.36-.58 4.6-.59 6 0 .08-.22.11-.79.11h-.79l-.16-1.58c-.2-1.94-.32-2.37-.81-2.9-1.3-1.41-3.61-2.21-6.41-2.21-3.78-.01-6.6 2.41-7.06 6.06-.27 2.15.49 3.91 2.15 4.98 1.35.87 3.01 1.33 6.43 1.76 6.13.77 8.98 2.4 9.87 5.63.26.95.28 3.18.03 4.4-.71 3.6-2.99 6.42-6.57 8.11-2.88 1.36-6.42 1.92-9.68 1.52zm-385.64-.81c-.212-.84-1.133-3.57-1.717-5.086-.927-2.41-9.796-24.194-10.058-24.705-.596-1.166-1.015-1.44-2.41-1.57-.545-.053-1.04-.095-1.103-.095-.08 0-.112-.215-.112-.774v-.773l1.372.07c.755.04 3.013.07 5.018.07s4.263-.03 5.017-.07l1.373-.07v.773c0 .677-.02.774-.158.774-.086 0-.824.043-1.64.095-1.7.108-2.146.24-2.336.7-.09.214-.092.348-.014.575.312.91 9.32 24.01 9.362 24.008.063-.003 8.583-22.048 8.83-22.844.326-1.054.19-1.843-.37-2.132-.293-.152-1.22-.28-2.626-.366l-.878-.053v-1.53l1.103.07c1.45.09 6.54.09 8.055 0l1.192-.07v.773c0 .425-.03.774-.067.774-.443.006-1.716.213-1.905.31-.435.226-.865.8-1.385 1.856-.51 1.03-8.516 20.326-9.914 23.89-.41 1.04-1.04 2.77-1.41 3.847l-.67 1.957h-2.46l-.1-.404zm327.814-.114c-.303-1.055-.98-3.078-1.487-4.436-.483-1.297-10.072-24.93-10.278-25.33-.24-.466-.76-1.032-1.1-1.2-.31-.153-1.74-.375-2.42-.376-.04 0-.07-.348-.07-.773v-.773l1.41.07c1.84.09 8.03.09 9.85 0l1.41-.07v.773c0 .558-.03.773-.12.774l-1.59.09c-1.91.12-2.44.34-2.44.99 0 .15 9.3 24.26 9.4 24.37.04.05 8.78-22.65 8.91-23.15.08-.29.14-.68.14-.85 0-.37-.26-.83-.57-1.04-.23-.15-1.17-.28-2.69-.37l-.88-.05v-1.53l1.19.07c1.53.09 6.62.09 8.05 0l1.1-.07v1.52l-.34.06c-.18.03-.46.06-.61.06-.96.01-1.64.61-2.36 2.07-.48.98-8.97 21.46-10.09 24.35-.35.89-.91 2.46-1.25 3.49l-.62 1.87h-2.46l-.15-.52zm-358.244-.5v-.765l.968-.057c2.58-.155 3.093-.316 3.37-1.062.31-.835.342-2.142.34-13.973-.002-11.182-.04-12.97-.278-13.722-.15-.47-.51-.802-1.023-.948-.34-.096-2.626-.315-3.294-.315-.046 0-.083-.348-.083-.773v-.772l1.013.07c1.335.09 10.425.09 11.835 0l1.102-.07v1.525l-.787.055c-3.418.24-3.573.328-3.795 2.167-.13 1.083-.135 24.507-.005 25.643.208 1.815.49 1.984 3.62 2.17l.967.06v1.53l-1.328-.07c-1.71-.087-9.568-.087-11.295.002l-1.327.07v-.767zm50.4-.007c0-.56.03-.775.113-.775.06 0 .557-.04 1.102-.09 1.993-.185 2.357-.357 2.632-1.245.148-.476.158-1.382.158-13.65 0-14.174.013-13.79-.468-14.36-.278-.33-.87-.504-1.962-.575-.446-.03-1.124-.077-1.508-.106l-.697-.053v-.75c0-.54.03-.75.113-.75l3.757.1c2.603.07 5.55.07 10.305-.01 6.025-.09 11.096-.04 11.248.11.024.03-.015.33-.09.67-.263 1.24-.5 3.36-.555 4.97l-.056 1.65h-1.772v-1.86c0-2.39-.006-2.41-1.035-2.7-1.922-.55-4.07-.76-7.785-.77-2.43 0-3.148.04-4.477.27l-.293.05v12.65l2.138.07c4.162.13 7.576-.05 8.177-.45.343-.22.4-.43.56-2.1l.154-1.59.72-.02.71-.02v10.9l-.72-.02-.72-.02-.15-1.71c-.08-.94-.2-1.82-.25-1.96-.13-.32-.55-.5-1.63-.68-.68-.11-1.63-.14-4.59-.14-2.06 0-3.89.03-4.08.07l-.34.07V352l.29.05c.16.02.61.1 1.01.16.9.14 6.62.133 8.83-.016 1.67-.113 2.96-.29 3.26-.454.63-.34 1.19-1.848 1.58-4.324.07-.47.13-.89.13-.926 0-.036.38-.067.85-.067.62 0 .85.03.85.112 0 .06-.06.454-.13.874-.28 1.62-.59 4.87-.59 6.22v.6l-.58.06c-.72.08-9.91.1-16.66.04-2.77-.03-5.62-.01-6.32.03l-1.29.07v-.78zm28.17 0c0-.744.008-.775.203-.776.11-.01.79-.05 1.507-.1 2.08-.15 2.495-.34 2.778-1.28.13-.43.147-1.85.172-13.17.02-8.85-.002-12.92-.07-13.46-.214-1.65-.43-1.77-3.532-2.03l-.698-.06v-1.54l1.598.07c.878.04 4.21.05 7.402.03 10.09-.07 9.852-.08 11.62.36 2.737.68 4.447 2.24 5.184 4.72.127.42.16.85.157 2.02 0 1.47 0 1.49-.33 2.46-.4 1.16-.95 2.09-1.82 3.04-1.4 1.55-3.68 2.83-6.17 3.49l-.77.2 5.36 6.98c2.95 3.84 5.46 7.1 5.59 7.25.34.37 1.19.75 1.96.87l.66.1v1.52l-1.01-.07c-1.27-.09-3.41-.09-4.7-.01l-.99.06-.9-1.19c-.49-.66-2.92-3.91-5.39-7.23-4.25-5.71-4.98-6.66-6.33-8.21l-.56-.65.15-.32.15-.32h1.32c1.51 0 2.78-.12 3.5-.32 2.73-.76 4.69-2.57 5.32-4.91.27-.99.31-1.52.19-2.42-.4-3.13-2.14-4.85-5.53-5.49-1.34-.26-4.63-.09-6.22.31l-.43.11v13.41c0 12.34.02 13.45.16 14.07.16.69.36 1 .8 1.23.27.13 1.36.27 2.8.36l.97.05v1.53l-1.42-.07c-.78-.03-3.3-.06-5.6-.06s-4.82.03-5.6.07l-1.42.06v-.77zm56.16.008v-.766l.968-.055c1.443-.083 2.535-.224 2.8-.362.437-.227.64-.54.8-1.228.145-.616.157-1.645.157-13.402 0-11.765-.012-12.786-.156-13.403-.28-1.185-.65-1.378-2.94-1.533-.76-.052-1.44-.094-1.51-.094-.1 0-.13-.165-.13-.773v-.773l1.1.07c1.43.09 10.41.092 11.83 0l1.1-.07v1.53l-.79.055c-2.72.19-3.14.29-3.49.82-.4.61-.42 1.17-.39 14.64.02 11.32.04 12.75.17 13.18.28.94.7 1.13 2.78 1.27.71.05 1.39.09 1.5.09.19 0 .2.03.2.77v.77l-1.42-.07c-1.82-.09-9.35-.09-11.21 0l-1.42.07v-.77zm22.32-.01c0-.742.008-.773.202-.775.675-.005 2.96-.2 3.248-.277.19-.05.484-.22.654-.37.252-.23.34-.41.465-.96.14-.62.15-1.63.15-12.87 0-6.7-.04-12.75-.08-13.43l-.08-1.24-4.07.03c-3.82.03-4.09.04-4.4.2-.61.32-.7.64-.81 3.02l-.1 2.08h-1.59v-1.27c0-1.22-.13-3.91-.26-5.65l-.07-.84 2.16.06c5.22.14 14.19.17 19.61.07 3.11-.06 5.67-.09 5.69-.08.02.02-.03 1-.1 2.19s-.16 2.92-.19 3.85l-.06 1.69h-1.5l-.06-.83-.14-2.16c-.07-1.12-.11-1.38-.28-1.64-.4-.64-.3-.63-4.83-.66l-4.06-.02-.07.25c-.04.14-.09 6.07-.11 13.17-.04 13.84-.03 14.35.4 14.93.36.49.99.64 3.29.78l.97.06v1.53l-1.42-.07c-1.82-.09-9.36-.09-11.21 0l-1.42.07v-.77zm30.78 0c0-.742.008-.773.203-.775.674-.005 2.958-.2 3.247-.277.19-.05.484-.22.654-.37.574-.53.612-.92.617-6.45.01-4.54 0-4.84-.16-5.26-.17-.43-5.74-10.24-6.65-11.7-1.63-2.61-3.82-4.81-5.21-5.21-.26-.07-.74-.16-1.08-.19l-.6-.05v-1.48l2.73-.57c1.5-.31 2.88-.56 3.07-.56.19.01.48.09.64.19.69.42 2.28 2.37 3.21 3.92.27.45 1.99 3.55 3.82 6.91 1.83 3.35 3.35 6.1 3.38 6.1.07 0 5.15-8.08 6.32-10.04.56-.93 1.61-2.79 2.34-4.13l1.33-2.43 1.94-.02 1.94-.02v.44c0 .3-.05.48-.14.56-.2.17-2.79 3.4-3.78 4.72-4.24 5.64-7.57 10.97-8.15 13.06-.19.68-.2.9-.23 5.39-.04 6.09.03 6.66.9 7.09.34.17 1.22.29 2.8.38l.97.06v1.53l-1.42-.07c-1.82-.09-9.35-.09-11.2 0l-1.41.07v-.77zm70.92.01v-.766l.968-.057c1.585-.095 2.46-.217 2.804-.39.438-.222.697-.772.814-1.728.13-1.06.13-24.705-.002-25.744-.223-1.785-.397-1.882-3.797-2.12l-.787-.054v-.757c0-.547.03-.756.112-.755.062 0 1.713.043 3.668.093 2.495.063 5.406.06 9.765-.012 5.675-.094 10.736-.042 10.89.112.027.027-.015.347-.092.712-.253 1.203-.5 3.433-.556 5.01l-.055 1.553h-1.772v-1.913c-.002-2.054-.043-2.272-.457-2.47-.392-.19-1.975-.552-3.04-.698-1.714-.24-4.912-.36-6.5-.25-.763.05-1.68.14-2.04.2l-.653.1v6.29c0 5.91.01 6.29.158 6.35.086.03 2.02.06 4.297.06 3.653 0 4.235-.02 4.945-.17.983-.2 1.112-.27 1.27-.65.104-.25.4-2.63.4-3.21 0-.15.08-.17.743-.17h.742v10.89h-.742c-.71 0-.743-.01-.744-.21-.01-.54-.28-3.22-.35-3.41-.21-.55-.86-.73-3.12-.9-1.44-.11-6.97-.05-7.41.07l-.21.05.04 5.99c.02 3.91.07 6.14.14 6.43.3 1.31.63 1.47 3.54 1.64l.96.05v1.54l-1.33-.07c-1.73-.09-9.38-.09-11.21 0l-1.42.07v-.77zm61.83-.01c0-.742.008-.773.203-.774.11-.01.79-.05 1.507-.1 2.08-.15 2.5-.34 2.775-1.28.118-.4.145-1.28.173-5.43.03-4.66.022-4.99-.14-5.5-.196-.64-5.828-10.52-7.01-12.31-1.275-1.93-2.495-3.28-3.74-4.13-.68-.47-1.31-.69-2.16-.76l-.698-.06v-1.47l2.768-.58c1.522-.32 2.92-.57 3.11-.57.608.02 1.23.56 2.415 2.08 1 1.28 1.487 2.12 5.087 8.69 2.743 5 3.5 6.32 3.585 6.23.22-.25 5.265-8.31 6.387-10.21.645-1.1 1.7-2.97 2.343-4.16l1.17-2.18h3.915l-.002.38c-.002.33-.07.46-.457.92-5.14 6.12-10.85 14.64-11.6 17.34-.31 1.14-.38 2.52-.33 6.82.06 4.98.13 5.37.98 5.81.27.14 1.36.28 2.81.36l.97.06v1.53l-1.41-.07c-.78-.04-3.3-.07-5.6-.07s-4.82.03-5.6.07l-1.42.07v-.78zm51.93 0c0-.74.008-.773.203-.775.585-.007 1.967-.186 2.193-.284.315-.137.83-.504 1.05-.75.49-.54 1.132-1.918 5.017-10.76 2.337-5.318 4.725-10.742 5.306-12.054 1.38-3.11 1.95-4.463 2.75-6.435l.65-1.62.8-.026c.8-.03.8-.03.92.22.06.14 2.56 6 5.55 13.03 7.2 16.91 6.98 16.41 7.74 17.48.54.76.96 1 1.98 1.11.43.04.86.08.95.08.14 0 .16.1.16.77v.77l-1.65-.07c-2.21-.09-6.49-.1-9-.01l-2.05.07v-1.55l.24-.01c.74-.01 2.59-.19 2.92-.28.44-.13.84-.38.96-.62.14-.28-.1-1.01-1.65-4.89l-1.46-3.67-6.83.02-6.83.02-.76 1.8c-1.47 3.47-2.26 5.82-2.16 6.37.08.43.46.75 1.09.9.45.11 2.23.32 2.76.32.14 0 .16.09.16.77v.77l-1.87-.07c-2.28-.09-5.46-.09-7.61 0l-1.6.07v-.77zm22.542-12.63c-1.125-2.707-5.664-13.406-5.71-13.457-.04-.05-5.58 12.76-5.927 13.712-.018.05 2.357.082 5.874.082h5.9l-.14-.337zm39.288 12.64v-.766l.968-.057c2.91-.174 3.234-.324 3.55-1.642.073-.31.112-3.84.138-12.493.035-11.877 0-13.863-.255-14.626-.15-.48-.51-.8-1.02-.95-.34-.1-2.62-.32-3.29-.32-.04 0-.08-.35-.08-.78v-.77l1.02.07c1.33.09 10.42.09 11.84 0l1.1-.07v1.53l-.78.05c-2.83.19-3.24.31-3.54.98-.31.71-.36 1.84-.33 7.7l.03 5.62 6.79-6.63c6.23-6.07 7.25-7.12 7.55-7.7.06-.11.1-.51.1-.89v-.69l1.02.07c1.3.09 5.18.09 6.26 0l.83-.07v1.52l-1.05.06c-.58.03-1.28.1-1.55.15-.65.12-1.66.61-2.37 1.14-.32.23-3.44 3.01-6.94 6.17-5.14 4.64-6.34 5.76-6.24 5.85 3.29 3.14 16.06 15.15 16.51 15.52.86.7 1.55 1.04 2.31 1.12l.61.06v1.54l-.74-.07c-.63-.06-1.77-.06-5.61-.01l-.64.01-5.84-5.62c-3.21-3.09-6.9-6.65-8.2-7.91-2.3-2.22-2.37-2.29-2.59-2.17l-.22.12v5.59c0 5.89.05 6.83.39 7.51.33.67.81.8 3.32.95l.97.06v1.53l-1.33-.07c-1.71-.09-9.57-.09-11.29 0l-1.33.07v-.76zm42.66-.01c0-.742.008-.774.203-.774.774-.01 2.892-.21 3.266-.32.25-.07.54-.23.66-.36.46-.49.48-.79.52-6.06.03-4.27.01-4.95-.11-5.45-.11-.43-.9-1.87-3.35-6.15-3.3-5.75-4.08-7-5.22-8.34-1.59-1.87-2.88-2.71-4.38-2.83l-.7-.06v-1.47l2.76-.58c1.52-.32 2.9-.57 3.06-.56.62.04 1.17.47 2.18 1.74 1.18 1.47 1.73 2.42 5.34 9.01 1.92 3.5 3.52 6.34 3.56 6.3.04-.04 1.24-1.92 2.66-4.17 2.96-4.68 4.55-7.35 6.15-10.33l1.12-2.09h3.91l-.01.38c0 .33-.07.46-.46.93-5.16 6.12-10.97 14.82-11.65 17.46-.28 1.05-.34 2.5-.29 6.66.06 5.03.12 5.41.97 5.85.27.14 1.36.28 2.803.36l.97.05v1.53l-1.416-.07c-.78-.04-3.3-.07-5.61-.07-2.3 0-4.82.03-5.6.07l-1.42.07v-.78zm25.02.176v-.58l.873-.48c.998-.55 1.357-.94 1.617-1.76.157-.5.165-1.17.165-13.21 0-11.72-.012-12.74-.156-13.36-.28-1.19-.65-1.38-2.94-1.54-.76-.05-1.44-.1-1.51-.1-.1 0-.13-.17-.13-.78v-.78l1.1.07c1.44.09 10.41.09 11.83 0l1.1-.07v1.53l-.79.05c-3.19.22-3.42.31-3.72 1.45-.1.36-.13 3.1-.15 14.06-.02 7.49-.01 13.61.02 13.61.02 0 .46.07.97.15.75.12 1.49.15 4.16.14 5.35-.01 8.61-.33 9.23-.89.25-.24.46-.87 1.02-3.21l.51-2.14h.8c.47 0 .8.04.8.09 0 .05-.15 1.35-.32 2.9-.35 3.06-.63 5.1-.72 5.18-.16.16-7.17.22-13.59.12-3.76-.05-6.92-.08-7.02-.06-.1.02-.86.06-1.69.09l-1.51.05v-.58zm26.46-.18c0-.68.02-.78.158-.78.864-.02 1.967-.19 2.316-.36.498-.24 1.208-.96 1.513-1.52.125-.23 2.078-4.63 4.34-9.78 2.26-5.15 4.658-10.6 5.328-12.11 1.425-3.22 2.29-5.25 2.956-6.93l.48-1.22h1.65l4.45 10.44 5.95 13.95c3.05 7.14 3.17 7.3 5.46 7.47l.7.05v1.53l-1.77-.07c-2.34-.09-6.41-.09-8.95-.01l-2.05.07v-1.53l.97-.06c2.04-.12 2.74-.3 3.11-.78.15-.2.16-.28.06-.67-.06-.25-.77-2.14-1.59-4.2l-1.49-3.76H614.9l-.56 1.32c-1.585 3.74-2.36 5.92-2.374 6.66-.017.88.56 1.18 2.646 1.37.57.05 1.106.09 1.192.09.138 0 .158.1.158.77v.77l-1.868-.07c-2.24-.09-5.642-.08-7.65.01l-1.462.07v-.78zm22.565-12.41c-.33-.83-5.768-13.63-5.81-13.68-.034-.04-1.374 3.02-2.978 6.79s-2.933 6.89-2.952 6.92c-.02.04 2.624.07 5.874.07 4.69 0 5.9-.03 5.86-.12zM461.46 317.71c-1.162-.3-1.934-1.6-1.677-2.827.21-1.005.844-1.64 1.86-1.868 1.736-.39 3.235 1.1 2.87 2.848-.24 1.14-1.04 1.837-2.17 1.89-.33.016-.726-.004-.883-.044zm9.45 0c-1.518-.39-2.2-2.3-1.325-3.706.476-.764 1.543-1.194 2.493-1.003 1.297.27 2.057 1.32 1.917 2.67-.125 1.21-.992 2.03-2.203 2.09-.328.02-.725 0-.882-.04zm146.43 0c-1.17-.3-1.932-1.62-1.654-2.863.218-.973.856-1.613 1.822-1.83 1.446-.322 2.797.63 2.927 2.063.137 1.508-.773 2.606-2.216 2.674-.33.016-.73-.005-.88-.045zm9.45 0c-1.17-.3-1.932-1.62-1.654-2.863.218-.973.856-1.613 1.822-1.83 1.045-.232 2.07.19 2.606 1.075.28.46.3.552.3 1.265 0 .577-.043.855-.174 1.12-.223.45-.65.876-1.09 1.085-.385.182-1.363.262-1.81.147zm-315.57-76.195c0-33.24.033-60.435.073-60.435.04 0 .435.123.878.273 3.13 1.06 6.57 1.574 10.48 1.567 4.13-.007 7.64-.532 10.8-1.61.37-.127.7-.23.75-.23.04 0 .08 27.196.08 60.435v60.435h-23.04v-60.435zm19.53.534c0-53.67-.008-56.39-.158-56.35-.66.2-2.802.56-4.432.73-3.09.33-7.508.03-10.767-.72-.32-.08-.602-.14-.624-.14-.03 0-.04 25.39-.04 56.43v56.43h16.02v-56.39zm-12.06-65.48c-2.537-.15-6.884-.68-9.585-1.17-17.428-3.18-33.772-12.61-46.045-26.55-2.05-2.33-5.132-6.39-6.483-8.53l-.185-.29h66.344c53.05 0 66.33.02 66.278.11-.93 1.57-2.66 4.05-4.498 6.45-4.93 6.45-10.93 12.15-17.54 16.66-10.852 7.4-23.12 11.76-36.766 13.05-2.455.23-3.317.27-6.435.3-1.98.02-4.268 0-5.085-.05zm10.8-3.72c6.103-.55 11.64-1.67 17.145-3.47 12.304-4.03 23.277-11.26 31.846-21 1.27-1.44 3.2-3.79 3.74-4.55l.21-.3h-119.2l.35.42c4.5 5.56 9.59 10.4 15.38 14.6 11.97 8.68 25.68 13.63 40.1 14.48 2.41.14 7.68.03 10.44-.22zm-21.533-39c-3.364-9.91-4.678-16.13-4.673-22.12.006-6.73 1.485-10.95 5.858-16.74 3.03-4.01 6.294-7.52 14.46-15.58 13.443-13.26 16.25-16.16 18.44-19.08 3.2-4.28 4.546-6.83 5.103-9.68.254-1.3.2-3.07-.136-4.37-.28-1.06-.79-2.37-1.34-3.37-.21-.4-.37-.73-.35-.75.88-.7 5.66-4.67 7.2-5.99l.34-.29.81.86c3.92 4.15 6.63 9.86 7.62 16.1.2 1.25.27 4.75.13 6.07-.3 2.76-1.03 5.17-2.24 7.42-.65 1.19-1.01 1.73-2.25 3.29-4.52 5.7-10.84 12.66-21.25 23.44-6.1 6.31-8.49 8.87-11.8 12.64-1.42 1.62-1.71 2.03-2.21 3.1-.69 1.49-.97 3.02-.97 5.26 0 2.14.27 4.01.99 6.88.52 2.12.79 2.97 2.55 8.23.93 2.79 1.78 5.38 1.87 5.73l.18.65h-17.76l-.61-1.78zm13.86-1.58c-.024-.06-.553-1.63-1.175-3.49-2.34-6.98-3.07-10.23-3.185-14.18-.04-1.43-.02-2.05.102-2.97.29-2.26 1.03-4.33 2.12-5.95.49-.74 1.23-1.61 3.95-4.63 2.85-3.17 3.72-4.1 9.68-10.26 5.6-5.8 7.28-7.59 11.92-12.65 4.6-5.02 9.06-10.29 10.41-12.28 3.63-5.4 3.44-13.98-.47-21.41-.62-1.17-1.51-2.56-2.18-3.4l-.44-.55-1.57 1.29c-.87.71-1.57 1.32-1.57 1.36 0 .03.13.43.3.87.64 1.74.98 3.94.87 5.58-.28 3.97-2.1 7.76-6.45 13.41-1.86 2.41-5.65 6.35-13.84 14.38-10.59 10.4-14.1 14.05-17.21 17.89-4.34 5.35-5.88 8.6-6.44 13.59-.12 1.02-.14 1.79-.09 3.55.11 4.94 1.02 9.39 3.52 17.32.43 1.36.8 2.5.82 2.54.02.03 2.49.06 5.49.06 4.32 0 5.44-.02 5.4-.11zm7.402 2.97c-.24-.94-.63-2.23-1.68-5.64-1.69-5.47-2.21-7.5-2.59-10.1-.77-5.21-.24-8.42 1.91-11.51 2.01-2.9 4.83-5.4 15.14-13.46 9.74-7.62 11.94-9.61 13-11.79.95-1.97 1.1-4.15.45-6.73-.12-.48-.22-.89-.22-.91 0-.08 5.14-4.47 6.87-5.87l.43-.35.26.31c.67.79 2.01 2.77 2.63 3.87 2.36 4.2 3.36 9.07 2.76 13.55-.34 2.53-.86 4.27-1.89 6.38-1.41 2.89-3.15 4.96-5.9 7.04-4.67 3.52-15.39 13.13-18.24 16.34-1.42 1.59-1.6 2.21-1.26 4.24.36 2.19 2.59 11.05 3.6 14.34.1.31.18.59.18.6 0 .02-3.46.04-7.7.04h-7.69l-.1-.39zm11.13-2.98c-.2-.52-2.16-8.36-2.51-10.06-.26-1.23-.29-1.56-.3-2.87-.01-1.23.02-1.58.16-1.98.51-1.52 1.2-2.43 3.73-4.96 4.87-4.86 13.46-12.44 17.2-15.19 2.36-1.74 4.44-4.57 5.43-7.41 1.19-3.41 1.29-7.25.28-10.8-.18-.62-.52-1.61-.77-2.19-.47-1.11-1.52-3.12-1.63-3.12-.04 0-.74.57-1.57 1.27l-1.5 1.27.07.55c.04.3.07 1.36.07 2.35 0 1.67-.02 1.87-.26 2.79-1.05 4.07-2.81 5.89-14.81 15.25-6.14 4.79-8.74 6.92-11.13 9.1-4.55 4.16-5.52 6.69-4.71 12.3.43 3 .83 4.54 2.75 10.7.51 1.65.93 3.02.93 3.04 0 .03 1.93.04 4.28.04 3.61 0 4.28-.02 4.24-.12zm-48.61-9.13c-.03-.04-.3-.74-.6-1.56-2.38-6.37-3.71-12.1-4.15-17.91-.14-1.86-.06-6.99.13-8.68.3-2.67.61-4.15 1.19-5.76 2.2-6.14 7.48-13.92 16.33-24.05 5.81-6.65 19.53-23.42 22.53-27.54 2.03-2.79 3.22-5.45 3.45-7.75.08-.78-.01-2.23-.17-2.97-.38-1.7-1.28-3.61-2.74-5.82l-.16-.24 3.71-3.11c2.04-1.71 3.74-3.12 3.77-3.12.15 0 2.66 2.68 3.37 3.6 4.11 5.3 6.06 11.81 5.71 19.01-.2 4.09-1 7.42-2.4 10.05-1.39 2.61-3.8 6.35-6.25 9.72-3.38 4.63-6.13 8.07-12.17 15.21-2.55 3.01-2.63 3.1-5.95 6.79-7.79 8.65-11.14 12.78-13.82 17.01-.82 1.28-2.08 3.81-2.41 4.82-1.02 3.07-1 8.49.03 14.84.36 2.2 1.22 6.31 1.53 7.31.05.15-.25.16-5.44.16-3.02 0-5.51-.04-5.54-.08zm6.84-3.37c-.03-.11-.17-.85-.32-1.64-.89-4.78-1.31-9.7-1.1-12.9.14-2.13.31-3.43.58-4.47 1.07-4.05 4.59-9.46 11.02-16.96 1.73-2.02 2.29-2.66 6.21-7.02 3.3-3.68 3.24-3.61 6.43-7.38 6.51-7.71 10.36-12.63 13.56-17.37 1.9-2.81 3.82-6.04 4.38-7.36.65-1.54 1.23-4.04 1.45-6.37.15-1.54.06-4.88-.18-6.46-.66-4.36-2.22-8.17-4.65-11.33-1-1.3-1.08-1.39-1.22-1.3-.06.04-.73.58-1.47 1.19s-1.36 1.13-1.38 1.14c-.01.01.08.23.21.48.13.25.41.9.62 1.43 2.35 5.77 1.23 10.8-3.9 17.48-4.36 5.66-16.59 20.57-21.66 26.37-6.44 7.36-10.52 12.85-13.48 18.09-2.65 4.7-3.42 7.68-3.55 13.86-.13 6.17.92 12.18 3.352 19.23l.51 1.46h4.59l-.05-.2zm-18.7-27.67c-1.05-2.44-1.64-4.41-2.11-7.09-1.37-7.85-.27-14.78 3.63-22.74 2.31-4.72 4.88-8.66 11.9-18.27 2.36-3.24 7.74-10.75 10.37-14.49 4.84-6.9 7.58-11.41 8.4-13.86.24-.74.25-.84.24-2.39-.01-1.43-.03-1.73-.24-2.57-.32-1.3-.69-2.34-1.24-3.47-.26-.53-.45-.99-.44-1.03.03-.09 4.56-3.92 6.19-5.24.67-.54 1.26-.98 1.32-.98.17 0 2.05 1.91 2.83 2.88 2.06 2.56 3.63 5.67 4.39 8.71 1.38 5.53.95 11.28-1.26 16.84-1.05 2.63-3.53 6.91-6.47 11.16-2.69 3.88-4.12 5.76-11.22 14.8-5.67 7.21-7.84 10.08-10.45 13.86-4.68 6.75-7.56 12.05-9.36 17.23-.93 2.67-1.33 4.4-1.66 7.27l-.11.92h-4.08l-.69-1.59zm2.44-3.33c0-.4.42-2.33.72-3.31 1.73-5.66 6.23-13.84 12.16-22.11 1.5-2.09 5.27-7.02 8.48-11.09 7.84-9.94 10.68-13.8 13.5-18.32 1.72-2.75 2.87-4.87 3.58-6.58 2.2-5.32 2.49-11.1.81-16.24-.69-2.1-2.17-4.74-3.61-6.44-.25-.29-.28-.3-.44-.18l-1.61 1.34-1.47 1.23c-.02.01.13.52.33 1.14.88 2.76 1.13 5.36.7 7.41-.61 2.87-3.11 7.24-8.81 15.38-2.57 3.66-8 11.26-10.33 14.44-6.41 8.77-8.52 11.88-10.73 15.84-2.88 5.15-4.25 9.02-4.9 13.81-.2 1.49-.23 6.02-.05 7.65.21 1.88.71 4.8 1.01 5.91.08.29.12.34.35.34.23 0 .27-.03.27-.25z"/>
</svg>
