<svg xmlns="http://www.w3.org/2000/svg" viewBox="0 0 64.713 11.618">
  <path fill="#dee781" d="M28.572 7.932c-.543.544-1.295.88-2.124.88-1.66 0-3.004-1.345-3.004-3.004 0-1.66 1.345-3.003 3.004-3.003.81 0 1.542.32 2.082.84l1.507-1.365c-.913-.93-2.183-1.506-3.59-1.506-2.78 0-5.033 2.254-5.033 5.034s2.254 5.033 5.034 5.033c1.37 0 2.614-.54 3.522-1.43zM56.1 7.797l-1.485 1.59s2.534 2.634 6.338 2.1C64.508 10.99 64.5 8.68 64.5 8.68l-2.814-.56s.282 1.003-1.607 1.124c-2.2.14-3.98-1.447-3.98-1.447M44.02 6.59l-1.33 3.057h7.838L49.204 6.59H44.06m-11.568 4.934h8.158v-2.14h-8.158zm-21.657-.054h2.345V.775h-2.345zM.08.08l6.054.066c3 .288 4.385 3.146 2.376 5.743-.025.03-1.498-1.25-1.498-1.25s.554-.93.152-1.84c-.252-.57-1.093-.87-1.457-.87l-5.627.1z"/>
  <path fill="#fff" d="M30.182 2.31l.474-.472-.122-.122c-.547-.558-1.177-.985-1.874-1.27-.695-.285-1.436-.43-2.202-.43-.854 0-1.673.178-2.434.528-.762.35-1.425.86-1.968 1.514l-.127.126.53.457c-.29.36-.52.76-.71 1.19-.27.62-.41 1.28-.41 1.99 0 .48.06.95.19 1.39l-.62.21.03.18c.19.59.48 1.14.83 1.64s.78.92 1.26 1.27 1.02.62 1.6.81c.58.19 1.19.29 1.81.29.74 0 1.49-.14 2.21-.43.71-.3 1.34-.72 1.86-1.25l.12-.12-.46-.46c.4-.43.73-.93.97-1.5.27-.62.4-1.29.4-1.99s-.14-1.37-.41-1.98c-.25-.56-.59-1.07-1-1.51m-3.72 8.91c-.59 0-1.16-.09-1.7-.26-.54-.18-1.04-.43-1.48-.75-.45-.32-.85-.71-1.18-1.16-.32-.43-.58-.91-.77-1.42l.31-.1c.04.09.07.18.11.27.27.62.64 1.17 1.1 1.63.46.46 1.01.83 1.63 1.1.62.27 1.29.41 1.99.41s1.37-.13 1.98-.4c.55-.24 1.06-.57 1.49-.98l.21.22c-.23.21-.48.41-.74.58-.28.19-.59.35-.91.47-.67.28-1.36.42-2.07.42M26.4.44c.71 0 1.39.13 2.03.384.62.244 1.19.61 1.68 1.08l-.23.23c-.43-.4-.92-.72-1.472-.96-.6-.3-1.27-.43-1.97-.43s-1.37.133-1.99.402c-.616.268-1.164.64-1.625 1.1l-.16.165-.256-.21c.5-.55 1.1-.99 1.78-1.3.7-.32 1.46-.48 2.25-.48m-3.6 6.77l-.07-.22c-.11-.37-.17-.74-.17-1.11 0-.44.08-.87.233-1.27.16-.4.38-.77.67-1.11l.166-.21-.72-.62.15-.15c.43-.42.94-.77 1.51-1.02.574-.25 1.2-.37 1.856-.37.646 0 1.27.13 1.846.38.52.22.98.52 1.376.89l-.815.81c-.32-.3-.69-.53-1.09-.68-.43-.17-.88-.25-1.34-.25-.53 0-1.04.11-1.52.33-.48.22-.9.53-1.24.93-.29.33-.51.7-.66 1.11-.15.41-.23.83-.23 1.26 0 .19.02.38.04.56.03.19.07.37.13.54.12.38.3.73.53 1.04.23.3.49.58.8.8.31.23.64.4 1.01.52.81.27 1.72.24 2.54-.1.39-.15.74-.38 1.04-.68l.81.81c-.4.38-.86.68-1.39.9-.58.25-1.2.38-1.85.38-.66 0-1.28-.13-1.85-.37-.57-.25-1.08-.59-1.51-1.02-.43-.43-.78-.94-1.03-1.51-.04-.08-.07-.16-.1-.24zm-.13-4.27l.46.41c-.29.38-.54.81-.68 1.19-.16.44-.24.89-.24 1.35 0 .2.01.39.04.57 0 0 .07.38.11.52l-.54.19c-.11-.4-.17-.84-.17-1.28 0-.65.124-1.27.373-1.85.17-.39.39-.76.643-1.08m7.23 6.19l-1.03-1.04-.144.12c-.32.32-.68.56-1.07.72-.38.17-.8.26-1.26.26-.36 0-.71-.05-1.04-.16-.33-.11-.63-.27-.9-.47-.27-.2-.51-.44-.72-.72-.21-.28-.37-.59-.47-.93-.11-.3-.16-.64-.16-1 0-.39.07-.77.2-1.13.13-.36.33-.7.59-.99.3-.37.67-.65 1.11-.85.43-.19.89-.29 1.38-.29.9 0 1.67.32 2.3.95l.12.12 1.1-1.09c.37.4.67.87.9 1.4.25.58.38 1.2.38 1.85 0 .66-.13 1.29-.38 1.86-.23.52-.53.99-.9 1.39m34.45-2.6c-.2-.39-.49-.72-.86-.99-.37-.26-.82-.49-1.33-.67-.5-.18-1.07-.34-1.69-.47-.38-.09-.69-.17-.92-.24-.23-.07-.41-.14-.53-.21-.12-.06-.19-.122-.23-.19-.04-.07-.06-.14-.06-.23V3.4c0-.04.01-.1.04-.18l.03-.07-.63-.26c.13-.16.3-.29.52-.38.26-.1.57-.154.93-.154.57 0 1.15.1 1.73.31.57.21 1.12.5 1.64.86l.07.05 1.22-1.87-.06-.05C63.7 1.09 63 .7 62.22.45 61.45.2 60.59.07 59.67.07c-.88 0-1.673.166-2.35.49-.672.326-1.2.793-1.55 1.39-.3.52-.45 1.115-.45 1.766v.03c0 .595.12 1.102.354 1.503.23.4.546.73.934 1 .385.26.84.47 1.347.63.505.16 1.035.3 1.58.43.363.08.665.16.896.24.23.07.41.14.53.21.11.06.19.13.22.19.04.06.06.14.06.22v.09c-.05.33-.4.5-1.06.5h-.31v.99h.08c.02 0 .06-.01.12-.01l.1-.01c.59 0 1.07-.11 1.45-.32.38-.22.62-.53.72-.93.02-.1.04-.19.04-.27V8.1c0-.194-.03-.376-.09-.54-.06-.173-.19-.335-.38-.485-.19-.146-.44-.28-.77-.403-.32-.12-.75-.242-1.27-.36-.57-.13-1.07-.27-1.49-.414-.42-.143-.77-.317-1.05-.517-.27-.19-.49-.43-.62-.71-.14-.27-.21-.61-.21-1.01v-.02c0-.4.08-.76.23-1.08l1.06.44c-.05.16-.07.32-.07.5v.04c0 .26.05.49.16.68.1.19.26.36.47.5.21.14.47.25.79.35.32.1.7.19 1.13.29.53.12 1.01.26 1.42.4.42.15.77.32 1.06.52.28.2.5.44.65.72.15.28.23.61.23 1 0 .19-.02.39-.06.59l-.75-.16-.02.08c-.11.49-.4.88-.85 1.13-.46.26-1.04.4-1.74.4h-.13c-.77-.02-1.51-.16-2.21-.42s-1.35-.65-1.92-1.15l-.06-.05-.98 1.26-.02.02.05.05c.66.6 1.44 1.07 2.32 1.38.89.32 1.86.49 2.89.51h.09V11c.92-.002 1.7-.183 2.32-.537.61-.35 1.03-.842 1.25-1.466l.75.164.02-.07c.06-.16.1-.35.14-.56.03-.21.05-.41.05-.61V7.9c0-.54-.1-1.012-.3-1.402m-7.93-4.31l-.03.048c-.01.02-.03.042-.04.064-.1.19-.18.41-.24.646-.06.24-.09.48-.09.712v.016c0 .5.1.923.3 1.254.2.33.46.61.8.83.33.22.728.403 1.17.54.44.135.91.26 1.41.367.43.1.798.2 1.08.3.29.1.52.21.69.328.17.113.29.235.36.363.07.13.1.286.1.467V8.3c0 .04-.01.08-.03.137-.07.3-.26.537-.57.703-.31.17-.72.257-1.21.26v-.27c.39-.004.71-.073.95-.206.25-.14.39-.336.42-.585.01-.03.02-.07.02-.12v-.04c0-.15-.04-.28-.11-.4-.07-.11-.19-.22-.343-.32-.156-.1-.36-.19-.61-.26-.244-.08-.55-.16-.907-.25-.55-.13-1.073-.27-1.55-.42-.48-.15-.9-.35-1.25-.59s-.633-.53-.84-.89c-.2-.35-.31-.8-.31-1.33V3.7c0-.603.14-1.137.41-1.59.31-.536.78-.957 1.4-1.25.63-.3 1.37-.45 2.2-.45 1.68 0 3.1.44 4.22 1.304l-.854 1.3c-.51-.345-1.04-.615-1.58-.8-.57-.19-1.16-.29-1.75-.29-.42 0-.8.07-1.11.205-.3.12-.53.31-.68.54l-1.24-.51-.15-.06zm7.18 4.63c-.17-.317-.413-.595-.732-.824-.31-.23-.696-.42-1.135-.576-.43-.154-.93-.29-1.49-.41-.45-.1-.83-.2-1.13-.3-.29-.1-.53-.21-.7-.32-.17-.106-.29-.23-.357-.367-.07-.14-.105-.3-.105-.48v-.03c0-.12.02-.24.06-.36l.39.17v.17c0 .33.16.58.47.74.29.16.806.32 1.53.48.59.13 1.13.28 1.614.45.48.16.89.37 1.23.62.335.25.6.55.78.89.18.35.275.77.275 1.25v.02c0 .17-.01.33-.03.48-.02.13-.04.25-.06.36l-.41-.08c.02-.09.04-.19.05-.29.01-.12.017-.25.017-.38V8c0-.447-.09-.835-.26-1.154m-.26 2.11c-.19.533-.56.954-1.09 1.25-.565.32-1.29.48-2.15.48h-.13c-.03 0-.057.004-.08.013h-.11v.6c-.88-.03-1.71-.19-2.48-.47-.766-.28-1.45-.68-2.05-1.18l.57-.72c.574.46 1.206.82 1.88 1.06.696.25 1.446.38 2.23.4.04.01.09.01.16.01.75 0 1.38-.14 1.88-.42.48-.27.81-.65.97-1.14zM19.53 0h-5.96v.57h-2.798v10.98h9.274V.57h-.52zm-5.6.356h5.257V.57H13.93zm0 .57h5.257v1.5H13.93zm-.357 1.5h-1.137v2.16h1.14V6.69h-1.14v4.245h7.223V8.69h-5.73V7.027h3.5V4.23h-3.5V2.78h5.59V.927h.18v10.27h-8.57V.925h2.44zm.358 2.16h3.15V6.69h-3.15zm5.38 4.46v1.53h-6.52V7.03h.79v2.018zM13.57 4.23h-.782V2.78h.783zm21.674-2.1h-.83V.017h-2V10.82h.75v.748h7.564V9.34h-5.484zm-1.725 9.082v-.393h1.72V9.69h5.14v1.516zm1.36-1.53v.765h-1.37v-7.96h.54v7.195zm-.48-7.194h.47V9.34h-.47zM34.06.356v1.76h-.895v8.33h-.392V.356zM9.54 9.404l-2.586-3.75c.228-.11.462-.264.696-.46.27-.223.463-.484.574-.774.07-.15.12-.312.154-.506V3.91c.022-.156.03-.32.024-.484l-.008-.29-.002-.036c-.01-.04-.017-.08-.022-.12-.007-.05-.016-.096-.03-.146l-.046-.143c-.135-.47-.42-.84-.847-1.11-.38-.24-.89-.39-1.525-.45-.07 0-.282 0-.584-.01-.335 0-.724-.01-1.157-.01H.39V.37h4.474c.63.022 1.052.038 1.25.05.83.063 1.506.256 2.013.573.512.324.867.784 1.054 1.363.01.055.03.13.05.23.02.092.04.198.07.32.01.062.02.16.03.292l.01.232c0 .146-.02.336-.06.563-.04.227-.1.44-.17.628-.14.36-.34.66-.6.92l-.21.21.23.25.13-.09c.34-.3.6-.69.79-1.15.09-.21.16-.44.19-.68.04-.24.06-.45.06-.63V3.2c0-.137-.01-.248-.02-.33l-.07-.36c-.02-.118-.04-.198-.06-.237-.2-.68-.6-1.21-1.2-1.574C7.76.34 7.03.13 6.14.06 6.02.05 5.83.04 5.575.036 5.318.034 5.075.03 4.85.03c-.23 0-.61 0-1.09-.007C3.24.02 2.71.015 2.18.015H.05V1.43h1.124V3.4H0v7.37h1.172v.814h1.934V5.84h.53l3.96 5.7.01.012h2.603l-1.5-2.148zm-8.368 1.01H.356V3.757h.816zm6.615.78L3.825 5.498l-.01-.013h-.71V5.06h1.262l3 4.33.01.014h.91l1.24 1.79zM2.6 3.402V2.13h1.597c.344 0 .664.002.95.008l.458.007h.05c.418.032.745.126.973.282.243.15.412.373.503.657.02.06.04.14.05.243.02.133.02.175.02.187 0 .168-.01.32-.05.472v.003l-.02.07-.03.09c-.07.18-.21.36-.41.54-.19.17-.51.27-.94.29h-.48l2.8 4.05h-.48L4.55 4.71H3.105V3.4zm4.777 1.56c-.256.204-.507.35-.743.433l-.242.06L8.877 9.05H8.47l-2.565-3.7c.333-.037.63-.135.882-.294.29-.183.5-.443.626-.773.024-.06.046-.134.07-.24v-.005c.044-.146.065-.32.065-.518 0-.067-.006-.138-.018-.21-.01-.05-.017-.103-.023-.156-.006-.06-.02-.123-.043-.176-.103-.366-.317-.65-.638-.846-.313-.19-.698-.305-1.148-.338l-.6-.008c-.337-.005-.702-.008-1.084-.008h-1.75V3.4H1.53V1.43c.386 0 .807.003 1.253.008.467.005.938.008 1.4.008.442 0 .827.003 1.147.008l.49.007.08.01c.572.06 1.03.19 1.365.4.34.22.575.53.7.92.024.08.028.11.028.13L8 2.94c.02.04.03.063.03.076 0 .04.006.086.02.134.003.02.012.086.012.282 0 .152-.01.29-.033.43v.005l-.06.223c-.02.07-.04.133-.07.2-.09.245-.27.472-.52.673m-4.79 5.81V5.84h.19v5.388H1.53v-.457zm.18-5.71v.426h-.55v4.93h-.69V3.76h.71v1.3zm-.17-1.3h.18v.96H2.6zM49.83 1.17h-.586L48.772.016h-1.148l-.49 1.156h-.844l-.44 1.04h-.65l-3.895 9.244-.047.112h4.033l.75-1.904h4.21l.8 1.904h3.17L49.85 1.22zm-1.295-.8l.34.8H47.52l.338-.8zm-2.3 1.84l.29-.685h.46l-.29.686zm.292 6.232h3.212l.35.864h-3.91zM45.113 6.85l1.804-4.28h.413l1.757 4.28zm5.89 1.237l-.498-1.218-.008-.02h-1.025L47.59 2.26l-.022-.05h-.5l.303-.686h1.66l2.7 6.56zm-6.04-.88h4.272l.37.88H46.29l-.488 1.22h-1.728zm5.296 0l.35.88h-.64l-.36-.88zm-5.93-.356l1.75-4.28h.44l-1.8 4.28zm-2.54 4.37l3.64-8.64h.26l-1.88 4.59-.02.04h.78l-1.02 2.42-.02.05h2.13l-.62 1.54zm8.97-2.77l.35.87h-.64l-.36-.86zm.5 2.77l-.64-1.55h1.02l-.51-1.22h1.09l-2.84-6.92h.2l4.09 9.69z"/>
</svg>
